<svg width="19" height="19" viewBox="0 0 19 19" fill="none" xmlns="http://www.w3.org/2000/svg">
<path d="M1.01101 3.37585C1.83262 10.6389 8.01898 16.8253 15.282 17.6469C16.2294 17.754 17.0531 17.0665 17.24 16.1316L17.6189 14.2373C17.7958 13.3529 17.3588 12.4596 16.5522 12.0562L15.3168 11.4386C14.5071 11.0337 13.5236 11.2659 12.9805 11.9901C12.6267 12.4618 12.0584 12.7494 11.5147 12.5214C9.64568 11.738 6.9199 9.01221 6.13645 7.14322C5.9085 6.59944 6.19609 6.0312 6.66778 5.67743C7.39204 5.13424 7.62419 4.15082 7.21932 3.34108L6.60164 2.10572C6.1983 1.29904 5.30494 0.862113 4.42056 1.03899L2.52625 1.41785C1.5914 1.60482 0.903849 2.42853 1.01101 3.37585Z" stroke="#001942" stroke-width="2" stroke-linecap="round" stroke-linejoin="round"/>
</svg>
